<svg xmlns="http://www.w3.org/2000/svg" xmlns:xlink="http://www.w3.org/1999/xlink" width="500" zoomAndPan="magnify" viewBox="0 0 375 374.999991" height="500" preserveAspectRatio="xMidYMid meet" version="1.0"><defs><filter x="0%" y="0%" width="100%" height="100%" id="7867536654"><feColorMatrix values="0 0 0 0 1 0 0 0 0 1 0 0 0 0 1 0 0 0 1 0" color-interpolation-filters="sRGB"/></filter><g/><mask id="f90ee7a77c"><g filter="url(#7867536654)"><rect x="-37.5" width="450" fill="#000000" y="-37.499999" height="449.999989" fill-opacity="0.8"/></g></mask><clipPath id="73c7ec17ec"><path d="M 0.878906 0.964844 L 68.84375 0.964844 L 68.84375 68.820312 L 0.878906 68.820312 Z M 0.878906 0.964844 " clip-rule="nonzero"/></clipPath><clipPath id="f865310a43"><path d="M 0.878906 0.964844 L 68.84375 0.964844 L 68.84375 68.820312 Z M 0.878906 0.964844 " clip-rule="nonzero"/></clipPath><clipPath id="ded344d862"><rect x="0" width="69" y="0" height="69"/></clipPath><mask id="a2ea19e4c0"><g filter="url(#7867536654)"><rect x="-37.5" width="450" fill="#000000" y="-37.499999" height="449.999989" fill-opacity="0.8"/></g></mask><clipPath id="b74602e620"><path d="M 0.804688 0.175781 L 68.769531 0.175781 L 68.769531 68.03125 L 0.804688 68.03125 Z M 0.804688 0.175781 " clip-rule="nonzero"/></clipPath><clipPath id="68b061d2c1"><path d="M 68.769531 68.03125 L 0.804688 68.03125 L 0.804688 0.175781 Z M 68.769531 68.03125 " clip-rule="nonzero"/></clipPath><clipPath id="6940779aca"><rect x="0" width="69" y="0" height="69"/></clipPath><mask id="ea76bb373a"><g filter="url(#7867536654)"><rect x="-37.5" width="450" fill="#000000" y="-37.499999" height="449.999989" fill-opacity="0.8"/></g></mask><clipPath id="193befc2d1"><path d="M 0.285156 0.0976562 L 127.035156 0.0976562 L 127.035156 126.847656 L 0.285156 126.847656 Z M 0.285156 0.0976562 " clip-rule="nonzero"/></clipPath><clipPath id="b11ac393b0"><rect x="0" width="128" y="0" height="128"/></clipPath></defs><g mask="url(#f90ee7a77c)"><g transform="matrix(1, 0, 0, 1, 293, 150)"><g clip-path="url(#ded344d862)"><g clip-path="url(#73c7ec17ec)"><g clip-path="url(#f865310a43)"><path fill="#348890" d="M 68.84375 68.820312 L 0.878906 68.820312 L 0.878906 0.964844 L 68.84375 0.964844 Z M 68.84375 68.820312 " fill-opacity="1" fill-rule="nonzero"/></g></g></g></g></g><g mask="url(#a2ea19e4c0)"><g transform="matrix(1, 0, 0, 1, 151, 156)"><g clip-path="url(#6940779aca)"><g clip-path="url(#b74602e620)"><g clip-path="url(#68b061d2c1)"><path fill="#fdc23c" d="M 0.804688 0.175781 L 68.769531 0.175781 L 68.769531 68.03125 L 0.804688 68.03125 Z M 0.804688 0.175781 " fill-opacity="1" fill-rule="nonzero"/></g></g></g></g></g><g mask="url(#ea76bb373a)"><g transform="matrix(1, 0, 0, 1, 8, 124)"><g clip-path="url(#b11ac393b0)"><g clip-path="url(#193befc2d1)"><path fill="#016a74" d="M 127.035156 63.472656 C 127.035156 98.472656 98.660156 126.847656 63.660156 126.847656 C 28.65625 126.847656 0.285156 98.472656 0.285156 63.472656 C 0.285156 28.472656 28.65625 0.0976562 63.660156 0.0976562 C 98.660156 0.0976562 127.035156 28.472656 127.035156 63.472656 Z M 127.035156 63.472656 " fill-opacity="1" fill-rule="nonzero"/></g><path fill="#49cb5c" d="M 63.566406 67.066406 L 60.066406 63.5625 C 59.582031 63.078125 59.582031 62.296875 60.066406 61.8125 L 118.9375 2.941406 C 119.421875 2.457031 120.203125 2.457031 120.6875 2.941406 L 124.1875 6.441406 C 124.671875 6.925781 124.671875 7.710938 124.1875 8.191406 L 65.316406 67.066406 C 64.835938 67.546875 64.050781 67.546875 63.566406 67.066406 Z M 63.566406 67.066406 " fill-opacity="1" fill-rule="nonzero"/><path fill="#73d37a" d="M 62.953125 66.453125 C 62.132812 65.628906 62.132812 64.296875 62.953125 63.476562 L 117.097656 9.332031 C 117.921875 8.507812 119.253906 8.507812 120.074219 9.332031 C 120.898438 10.152344 120.898438 11.484375 120.074219 12.308594 L 65.929688 66.453125 C 65.109375 67.273438 63.777344 67.273438 62.953125 66.453125 Z M 62.953125 66.453125 " fill-opacity="1" fill-rule="nonzero"/><path fill="#738c96" d="M 104.375 70.371094 C 94.222656 80.519531 75.335938 78.09375 62.1875 64.941406 C 49.039062 51.796875 46.609375 32.90625 56.761719 22.753906 C 64.703125 14.816406 77.988281 14.574219 89.691406 21.140625 C 90.390625 21.53125 90.976562 22.089844 91.410156 22.765625 C 93.019531 25.273438 94.953125 27.6875 97.199219 29.933594 C 99.445312 32.179688 101.859375 34.113281 104.367188 35.722656 C 105.039062 36.152344 105.601562 36.742188 105.992188 37.441406 C 112.554688 49.144531 112.316406 62.429688 104.375 70.371094 Z M 104.375 70.371094 " fill-opacity="1" fill-rule="nonzero"/><path fill="#87a0af" d="M 61.082031 60.796875 C 55.46875 49.335938 56.316406 36.503906 64.289062 28.53125 C 71.175781 21.644531 81.695312 20.074219 91.824219 23.398438 C 92.699219 24.710938 93.667969 25.996094 94.722656 27.238281 C 94.710938 27.226562 94.699219 27.210938 94.683594 27.195312 Z M 105.992188 37.441406 C 105.601562 36.742188 105.039062 36.152344 104.367188 35.722656 C 102.847656 34.746094 101.367188 33.652344 99.9375 32.445312 L 65.089844 67.292969 C 65.300781 67.570312 65.515625 67.847656 65.734375 68.125 C 78.550781 78.417969 95.105469 79.640625 104.375 70.371094 C 112.316406 62.429688 112.554688 49.144531 105.992188 37.441406 Z M 105.992188 37.441406 " fill-opacity="1" fill-rule="nonzero"/><path fill="#87a0af" d="M 106.179688 75.21875 L 102.679688 78.71875 C 101.710938 79.683594 100.144531 79.683594 99.175781 78.71875 L 98.699219 78.238281 L 40.449219 122.460938 C 24.117188 116.03125 11.101562 103.015625 4.671875 86.683594 L 48.890625 28.433594 L 48.414062 27.953125 C 47.445312 26.988281 47.445312 25.421875 48.414062 24.453125 L 51.914062 20.953125 C 52.878906 19.984375 54.449219 19.984375 55.414062 20.953125 L 83.421875 48.960938 L 106.179688 71.714844 C 107.144531 72.683594 107.144531 74.25 106.179688 75.21875 Z M 106.179688 75.21875 " fill-opacity="1" fill-rule="nonzero"/><path fill="#9bb9c3" d="M 76.421875 55.960938 L 98.699219 78.238281 L 40.449219 122.460938 C 40.160156 122.347656 39.871094 122.234375 39.585938 122.113281 C 19.207031 113.742188 12.457031 88.191406 25.777344 70.644531 L 53.96875 33.507812 L 71.167969 50.710938 L 50.164062 71.714844 L 55.414062 76.96875 Z M 74.671875 47.207031 L 78.171875 43.707031 L 60.492188 26.027344 C 59.523438 25.0625 57.957031 25.0625 56.992188 26.027344 C 56.023438 26.996094 56.023438 28.5625 56.992188 29.527344 Z M 106.179688 71.714844 L 83.421875 48.960938 L 79.921875 52.460938 L 102.679688 75.21875 C 103.644531 76.183594 105.214844 76.183594 106.179688 75.21875 C 107.144531 74.25 107.144531 72.683594 106.179688 71.714844 Z M 106.179688 71.714844 " fill-opacity="1" fill-rule="nonzero"/><path fill="#fc9302" d="M 12.941406 87.546875 L 42.257812 48.933594 C 44.75 45.648438 49.570312 45.324219 52.484375 48.238281 C 53.554688 49.308594 54.238281 50.703125 54.425781 52.203125 L 55.65625 62.0625 C 56.9375 72.324219 61.605469 81.867188 68.921875 89.179688 C 69.558594 89.816406 69.484375 90.871094 68.769531 91.414062 L 39.230469 113.835938 C 38.050781 114.734375 36.386719 114.621094 35.335938 113.570312 L 13.207031 91.445312 C 12.160156 90.394531 12.042969 88.730469 12.941406 87.546875 Z M 12.941406 87.546875 " fill-opacity="1" fill-rule="nonzero"/><path fill="#fcb30b" d="M 12.515625 88.109375 L 35.367188 58.011719 C 35.910156 57.296875 36.964844 57.222656 37.601562 57.859375 C 44.914062 65.171875 54.457031 69.839844 64.71875 71.125 L 74.578125 72.355469 C 76.078125 72.542969 77.472656 73.226562 78.542969 74.296875 C 81.457031 77.210938 81.128906 82.03125 77.847656 84.523438 L 38.664062 114.269531 C 37.78125 114.941406 36.558594 114.941406 35.671875 114.269531 C 27.0625 107.742188 19.371094 100.082031 12.816406 91.496094 L 12.519531 91.109375 C 11.84375 90.226562 11.84375 88.996094 12.515625 88.109375 Z M 12.515625 88.109375 " fill-opacity="1" fill-rule="nonzero"/></g></g></g><g fill="#000000" fill-opacity="1"><g transform="translate(164.414627, 193.976046)"><g><path d="M 10.15625 0.34375 C 6.882812 0.34375 4.519531 -0.46875 3.0625 -2.09375 C 1.601562 -3.71875 0.875 -6.335938 0.875 -9.953125 L 0.875 -13.484375 L 7.984375 -13.484375 L 7.984375 -8.984375 C 7.984375 -7.191406 8.554688 -6.296875 9.703125 -6.296875 C 10.347656 -6.296875 10.796875 -6.484375 11.046875 -6.859375 C 11.296875 -7.242188 11.421875 -7.882812 11.421875 -8.78125 C 11.421875 -9.957031 11.28125 -10.929688 11 -11.703125 C 10.71875 -12.472656 10.359375 -13.113281 9.921875 -13.625 C 9.492188 -14.144531 8.722656 -14.953125 7.609375 -16.046875 L 4.5 -19.15625 C 2.082031 -21.507812 0.875 -24.113281 0.875 -26.96875 C 0.875 -30.039062 1.582031 -32.378906 3 -33.984375 C 4.414062 -35.597656 6.484375 -36.40625 9.203125 -36.40625 C 12.441406 -36.40625 14.773438 -35.546875 16.203125 -33.828125 C 17.640625 -32.109375 18.359375 -29.414062 18.359375 -25.75 L 11 -25.75 L 10.96875 -28.21875 C 10.96875 -28.695312 10.832031 -29.078125 10.5625 -29.359375 C 10.289062 -29.640625 9.921875 -29.78125 9.453125 -29.78125 C 8.890625 -29.78125 8.46875 -29.625 8.1875 -29.3125 C 7.90625 -29.007812 7.765625 -28.59375 7.765625 -28.0625 C 7.765625 -26.882812 8.4375 -25.664062 9.78125 -24.40625 L 13.984375 -20.375 C 14.960938 -19.414062 15.773438 -18.507812 16.421875 -17.65625 C 17.066406 -16.800781 17.582031 -15.789062 17.96875 -14.625 C 18.363281 -13.46875 18.5625 -12.09375 18.5625 -10.5 C 18.5625 -6.945312 17.910156 -4.25 16.609375 -2.40625 C 15.304688 -0.570312 13.15625 0.34375 10.15625 0.34375 Z M 10.15625 0.34375 "/></g></g></g><g fill="#000000" fill-opacity="1"><g transform="translate(183.776621, 193.976046)"><g><path d="M 9.953125 0.34375 C 6.984375 0.34375 4.773438 -0.492188 3.328125 -2.171875 C 1.890625 -3.859375 1.171875 -6.351562 1.171875 -9.65625 L 1.171875 -36.078125 L 8.1875 -36.078125 L 8.1875 -9.953125 C 8.1875 -8.804688 8.296875 -7.910156 8.515625 -7.265625 C 8.742188 -6.617188 9.222656 -6.296875 9.953125 -6.296875 C 10.679688 -6.296875 11.15625 -6.609375 11.375 -7.234375 C 11.601562 -7.867188 11.71875 -8.773438 11.71875 -9.953125 L 11.71875 -36.078125 L 18.734375 -36.078125 L 18.734375 -9.65625 C 18.734375 -6.351562 18.007812 -3.859375 16.5625 -2.171875 C 15.125 -0.492188 12.921875 0.34375 9.953125 0.34375 Z M 9.953125 0.34375 "/></g></g></g><g fill="#000000" fill-opacity="1"><g transform="translate(203.684613, 193.976046)"><g><path d="M 1.59375 -36.078125 L 11.125 -36.078125 C 14.007812 -36.078125 16.066406 -35.144531 17.296875 -33.28125 C 18.535156 -31.414062 19.15625 -28.691406 19.15625 -25.109375 C 19.15625 -21.523438 18.609375 -18.820312 17.515625 -17 C 16.421875 -15.1875 14.460938 -14.28125 11.640625 -14.28125 L 8.6875 -14.28125 L 8.6875 0 L 1.59375 0 Z M 9.109375 -20.796875 C 9.984375 -20.796875 10.625 -20.953125 11.03125 -21.265625 C 11.4375 -21.585938 11.703125 -22.050781 11.828125 -22.65625 C 11.953125 -23.257812 12.015625 -24.117188 12.015625 -25.234375 C 12.015625 -26.753906 11.84375 -27.847656 11.5 -28.515625 C 11.164062 -29.191406 10.492188 -29.53125 9.484375 -29.53125 L 8.6875 -29.53125 L 8.6875 -20.796875 Z M 9.109375 -20.796875 "/></g></g></g><g fill="#000000" fill-opacity="1"><g transform="translate(223.508606, 193.976046)"><g><path d="M 1.59375 0 L 1.59375 -36.078125 L 16.046875 -36.078125 L 16.046875 -29.109375 L 8.953125 -29.109375 L 8.953125 -22.09375 L 15.75 -22.09375 L 15.75 -15.28125 L 8.953125 -15.28125 L 8.953125 -7.015625 L 16.5 -7.015625 L 16.5 0 Z M 1.59375 0 "/></g></g></g><g fill="#000000" fill-opacity="1"><g transform="translate(240.812598, 193.976046)"><g><path d="M 1.59375 -36.078125 L 12.6875 -36.078125 C 14.445312 -36.078125 15.8125 -35.675781 16.78125 -34.875 C 17.75 -34.082031 18.398438 -32.960938 18.734375 -31.515625 C 19.066406 -30.078125 19.234375 -28.238281 19.234375 -26 C 19.234375 -23.957031 18.96875 -22.359375 18.4375 -21.203125 C 17.90625 -20.054688 16.984375 -19.257812 15.671875 -18.8125 C 16.753906 -18.59375 17.539062 -18.046875 18.03125 -17.171875 C 18.53125 -16.304688 18.78125 -15.132812 18.78125 -13.65625 L 18.6875 0 L 11.640625 0 L 11.640625 -14.109375 C 11.640625 -15.117188 11.441406 -15.765625 11.046875 -16.046875 C 10.648438 -16.328125 9.9375 -16.46875 8.90625 -16.46875 L 8.90625 0 L 1.59375 0 Z M 10.671875 -22.71875 C 11.679688 -22.71875 12.1875 -23.8125 12.1875 -26 C 12.1875 -26.945312 12.140625 -27.660156 12.046875 -28.140625 C 11.960938 -28.617188 11.804688 -28.945312 11.578125 -29.125 C 11.359375 -29.3125 11.039062 -29.40625 10.625 -29.40625 L 8.953125 -29.40625 L 8.953125 -22.71875 Z M 10.671875 -22.71875 "/></g></g></g><g fill="#000000" fill-opacity="1"><g transform="translate(260.846589, 193.976046)"><g><path d="M 1.59375 0 L 1.59375 -36.078125 L 12.59375 -36.078125 L 15.625 -14.0625 L 18.640625 -36.078125 L 29.734375 -36.078125 L 29.734375 0 L 23.140625 0 L 23.140625 -26 L 18.984375 0 L 12.515625 0 L 8.109375 -26 L 8.109375 0 Z M 1.59375 0 "/></g></g><g transform="translate(292.178587, 193.976046)"><g><path d="M 0.625 0 L 4.109375 -36.078125 L 16.34375 -36.078125 L 19.78125 0 L 12.9375 0 L 12.4375 -5.84375 L 8.0625 -5.84375 L 7.640625 0 Z M 8.609375 -11.59375 L 11.890625 -11.59375 L 10.296875 -29.953125 L 9.953125 -29.953125 Z M 8.609375 -11.59375 "/></g></g><g transform="translate(312.548586, 193.976046)"><g><path d="M 1.59375 -36.078125 L 12.6875 -36.078125 C 14.445312 -36.078125 15.8125 -35.675781 16.78125 -34.875 C 17.75 -34.082031 18.398438 -32.960938 18.734375 -31.515625 C 19.066406 -30.078125 19.234375 -28.238281 19.234375 -26 C 19.234375 -23.957031 18.96875 -22.359375 18.4375 -21.203125 C 17.90625 -20.054688 16.984375 -19.257812 15.671875 -18.8125 C 16.753906 -18.59375 17.539062 -18.046875 18.03125 -17.171875 C 18.53125 -16.304688 18.78125 -15.132812 18.78125 -13.65625 L 18.6875 0 L 11.640625 0 L 11.640625 -14.109375 C 11.640625 -15.117188 11.441406 -15.765625 11.046875 -16.046875 C 10.648438 -16.328125 9.9375 -16.46875 8.90625 -16.46875 L 8.90625 0 L 1.59375 0 Z M 10.671875 -22.71875 C 11.679688 -22.71875 12.1875 -23.8125 12.1875 -26 C 12.1875 -26.945312 12.140625 -27.660156 12.046875 -28.140625 C 11.960938 -28.617188 11.804688 -28.945312 11.578125 -29.125 C 11.359375 -29.3125 11.039062 -29.40625 10.625 -29.40625 L 8.953125 -29.40625 L 8.953125 -22.71875 Z M 10.671875 -22.71875 "/></g></g></g><g fill="#000000" fill-opacity="1"><g transform="translate(332.582581, 193.976046)"><g><path d="M 4.703125 0 L 4.703125 -29.140625 L 0.421875 -29.140625 L 0.421875 -36.078125 L 16.21875 -36.078125 L 16.21875 -29.140625 L 11.921875 -29.140625 L 11.921875 0 Z M 4.703125 0 "/></g></g></g><g fill="#000000" fill-opacity="1"><g transform="translate(178.633704, 207.386046)"><g><path d="M 6.707031 -0.839844 L 2.230469 -0.839844 L 2.230469 -3.71875 L 6.226562 -3.71875 L 6.226562 -4.558594 L 2.230469 -4.558594 L 2.230469 -7.441406 L 6.589844 -7.441406 L 6.589844 -8.28125 L 1.199219 -8.28125 L 1.199219 0 L 6.707031 0 Z M 6.707031 -0.839844 "/></g></g></g><g fill="#000000" fill-opacity="1"><g transform="translate(185.677714, 207.386046)"><g><path d="M 1.871094 -8.820312 L 0.839844 -8.820312 L 0.839844 -1.789062 C 0.839844 -1.441406 0.839844 -1.164062 0.851562 -0.949219 C 0.886719 -0.144531 1.332031 0.046875 1.933594 0.046875 C 2.171875 0.046875 2.4375 0.0351562 2.664062 0 L 2.664062 -0.742188 C 2.101562 -0.683594 1.90625 -0.816406 1.882812 -1.222656 C 1.871094 -1.429688 1.871094 -1.632812 1.871094 -1.824219 Z M 1.871094 -8.820312 "/></g></g></g><g fill="#000000" fill-opacity="1"><g transform="translate(188.641722, 207.386046)"><g/></g></g><g fill="#000000" fill-opacity="1"><g transform="translate(191.233728, 207.386046)"><g><path d="M 4.847656 -8.230469 C 4.476562 -8.28125 4.1875 -8.28125 3.769531 -8.28125 L 1.199219 -8.28125 L 1.199219 0 L 2.230469 0 L 2.230469 -3.382812 L 3.769531 -3.382812 C 4.1875 -3.382812 4.476562 -3.382812 4.847656 -3.433594 C 6.046875 -3.589844 6.996094 -4.429688 6.996094 -5.832031 C 6.996094 -7.234375 6.167969 -8.0625 4.847656 -8.230469 Z M 4.789062 -4.308594 C 4.558594 -4.261719 4.234375 -4.246094 3.863281 -4.246094 L 2.230469 -4.246094 L 2.230469 -7.414062 L 3.863281 -7.414062 C 4.234375 -7.414062 4.558594 -7.402344 4.789062 -7.355469 C 5.375 -7.222656 5.890625 -6.792969 5.890625 -5.832031 C 5.890625 -4.871094 5.375 -4.441406 4.789062 -4.308594 Z M 4.789062 -4.308594 "/></g></g></g><g fill="#000000" fill-opacity="1"><g transform="translate(198.409746, 207.386046)"><g><path d="M 3.515625 -6.527344 C 1.355469 -6.527344 0.359375 -4.980469 0.359375 -3.179688 C 0.359375 -1.390625 1.355469 0.167969 3.515625 0.167969 C 5.675781 0.167969 6.671875 -1.390625 6.671875 -3.179688 C 6.671875 -4.980469 5.675781 -6.527344 3.515625 -6.527344 Z M 3.515625 -0.625 C 2.230469 -0.625 1.488281 -1.691406 1.488281 -3.179688 C 1.488281 -4.679688 2.230469 -5.734375 3.515625 -5.734375 C 4.800781 -5.734375 5.542969 -4.679688 5.542969 -3.179688 C 5.542969 -1.691406 4.800781 -0.625 3.515625 -0.625 Z M 3.515625 -0.625 "/></g></g></g><g fill="#000000" fill-opacity="1"><g transform="translate(205.441762, 207.386046)"><g><path d="M 6.445312 -8.820312 L 5.410156 -8.820312 L 5.410156 -5.484375 L 4.992188 -6.109375 C 4.667969 -6.371094 3.996094 -6.527344 3.46875 -6.527344 C 1.824219 -6.527344 0.359375 -5.4375 0.359375 -3.085938 C 0.359375 -1.222656 1.390625 0.167969 3.253906 0.167969 C 3.898438 0.167969 4.570312 -0.0351562 4.933594 -0.335938 L 5.410156 -1.019531 L 5.410156 0 L 6.445312 0 Z M 3.40625 -0.625 C 2.136719 -0.625 1.488281 -1.765625 1.488281 -3.203125 C 1.488281 -4.871094 2.351562 -5.734375 3.46875 -5.734375 C 4.378906 -5.734375 5.410156 -5.113281 5.410156 -3.46875 L 5.410156 -3.121094 C 5.410156 -1.296875 4.464844 -0.625 3.40625 -0.625 Z M 3.40625 -0.625 "/></g></g></g><g fill="#000000" fill-opacity="1"><g transform="translate(212.821782, 207.386046)"><g><path d="M 6.109375 -3.359375 C 6.109375 -5.21875 5.136719 -6.527344 3.382812 -6.527344 C 1.644531 -6.527344 0.359375 -5.21875 0.359375 -3.15625 C 0.359375 -0.910156 1.597656 0.167969 3.253906 0.167969 C 4.558594 0.167969 5.773438 -0.515625 6.023438 -2.050781 L 4.945312 -2.050781 C 4.800781 -1.140625 4.128906 -0.625 3.300781 -0.625 C 2.363281 -0.625 1.570312 -1.1875 1.476562 -2.867188 L 6.085938 -2.867188 C 6.109375 -3.097656 6.109375 -3.265625 6.109375 -3.359375 Z M 3.359375 -5.734375 C 4.402344 -5.734375 4.96875 -4.980469 5.0625 -3.660156 L 1.488281 -3.660156 C 1.609375 -5.015625 2.351562 -5.734375 3.359375 -5.734375 Z M 3.359375 -5.734375 "/></g></g></g><g fill="#000000" fill-opacity="1"><g transform="translate(219.40979, 207.386046)"><g><path d="M 3.382812 -6.503906 C 3.085938 -6.503906 2.761719 -6.394531 2.496094 -6.214844 L 1.921875 -5.363281 L 1.921875 -6.359375 L 0.886719 -6.359375 L 0.886719 0 L 1.921875 0 L 1.921875 -3.625 C 1.921875 -5.074219 2.734375 -5.710938 3.816406 -5.640625 L 3.816406 -6.421875 C 3.695312 -6.480469 3.550781 -6.503906 3.382812 -6.503906 Z M 3.382812 -6.503906 "/></g></g></g><g fill="#000000" fill-opacity="1"><g transform="translate(223.3698, 207.386046)"><g/></g></g><g fill="#000000" fill-opacity="1"><g transform="translate(225.961807, 207.386046)"><g><path d="M 4.777344 -8.230469 C 4.355469 -8.28125 4.164062 -8.28125 3.71875 -8.28125 L 1.199219 -8.28125 L 1.199219 0 L 3.660156 0 C 4.105469 0 4.296875 0 4.714844 -0.046875 C 6.636719 -0.289062 8.050781 -1.800781 8.050781 -4.234375 C 8.050781 -6.707031 6.695312 -7.992188 4.777344 -8.230469 Z M 4.609375 -0.898438 C 4.34375 -0.851562 4.03125 -0.839844 3.601562 -0.839844 L 2.230469 -0.839844 L 2.230469 -7.441406 L 3.660156 -7.441406 C 4.09375 -7.441406 4.402344 -7.429688 4.667969 -7.378906 C 6.070312 -7.152344 6.925781 -6.070312 6.925781 -4.234375 C 6.925781 -2.28125 6.011719 -1.128906 4.609375 -0.898438 Z M 4.609375 -0.898438 "/></g></g></g><g fill="#000000" fill-opacity="1"><g transform="translate(234.469825, 207.386046)"><g><path d="M 6.109375 -3.359375 C 6.109375 -5.21875 5.136719 -6.527344 3.382812 -6.527344 C 1.644531 -6.527344 0.359375 -5.21875 0.359375 -3.15625 C 0.359375 -0.910156 1.597656 0.167969 3.253906 0.167969 C 4.558594 0.167969 5.773438 -0.515625 6.023438 -2.050781 L 4.945312 -2.050781 C 4.800781 -1.140625 4.128906 -0.625 3.300781 -0.625 C 2.363281 -0.625 1.570312 -1.1875 1.476562 -2.867188 L 6.085938 -2.867188 C 6.109375 -3.097656 6.109375 -3.265625 6.109375 -3.359375 Z M 3.359375 -5.734375 C 4.402344 -5.734375 4.96875 -4.980469 5.0625 -3.660156 L 1.488281 -3.660156 C 1.609375 -5.015625 2.351562 -5.734375 3.359375 -5.734375 Z M 3.359375 -5.734375 "/></g></g></g><g fill="#000000" fill-opacity="1"><g transform="translate(241.057833, 207.386046)"><g/></g></g><g fill="#000000" fill-opacity="1"><g transform="translate(243.64984, 207.386046)"><g><path d="M 6.707031 -0.839844 L 2.230469 -0.839844 L 2.230469 -3.71875 L 6.226562 -3.71875 L 6.226562 -4.558594 L 2.230469 -4.558594 L 2.230469 -7.441406 L 6.589844 -7.441406 L 6.589844 -8.28125 L 1.199219 -8.28125 L 1.199219 0 L 6.707031 0 Z M 6.707031 -0.839844 "/></g></g></g><g fill="#000000" fill-opacity="1"><g transform="translate(250.693849, 207.386046)"><g><path d="M 2.734375 -6.527344 C 1.429688 -6.527344 0.539062 -5.832031 0.539062 -4.667969 C 0.539062 -3.550781 1.453125 -3.085938 2.59375 -2.773438 C 3.660156 -2.484375 4.09375 -2.160156 4.09375 -1.546875 C 4.09375 -0.9375 3.539062 -0.625 2.855469 -0.625 C 2.125 -0.625 1.535156 -0.949219 1.367188 -1.871094 L 0.289062 -1.871094 C 0.480469 -0.433594 1.476562 0.167969 2.785156 0.167969 C 4.128906 0.167969 5.148438 -0.433594 5.148438 -1.632812 C 5.148438 -2.710938 4.453125 -3.289062 2.988281 -3.671875 C 2.125 -3.898438 1.597656 -4.152344 1.597656 -4.789062 C 1.597656 -5.339844 1.933594 -5.734375 2.652344 -5.734375 C 3.394531 -5.734375 3.851562 -5.292969 3.996094 -4.546875 L 5.074219 -4.546875 C 4.945312 -5.710938 4.164062 -6.527344 2.734375 -6.527344 Z M 2.734375 -6.527344 "/></g></g></g><g fill="#000000" fill-opacity="1"><g transform="translate(256.201856, 207.386046)"><g><path d="M 2.125 -5.519531 L 3.3125 -5.519531 L 3.3125 -6.3125 L 2.125 -6.3125 L 2.125 -7.789062 L 1.09375 -7.789062 L 1.09375 -6.3125 L 0.238281 -6.3125 L 0.238281 -5.519531 L 1.09375 -5.519531 L 1.09375 -1.8125 C 1.09375 -1.453125 1.09375 -1.1875 1.105469 -1.019531 C 1.164062 -0.226562 1.570312 0.0976562 2.363281 0.0976562 C 2.652344 0.0976562 2.941406 0.0859375 3.238281 0.0351562 L 3.238281 -0.71875 C 2.4375 -0.625 2.183594 -0.757812 2.136719 -1.367188 C 2.125 -1.535156 2.125 -1.644531 2.125 -1.859375 Z M 2.125 -5.519531 "/></g></g></g><g fill="#000000" fill-opacity="1"><g transform="translate(259.957864, 207.386046)"><g><path d="M 4.535156 0 L 5.566406 0 C 5.472656 -0.707031 5.449219 -1.140625 5.449219 -1.621094 L 5.449219 -4.007812 C 5.449219 -4.285156 5.4375 -4.597656 5.410156 -4.847656 C 5.304688 -5.890625 4.667969 -6.527344 3.15625 -6.527344 C 1.753906 -6.527344 0.804688 -5.746094 0.707031 -4.390625 L 1.789062 -4.390625 C 1.859375 -5.269531 2.292969 -5.734375 3.15625 -5.734375 C 4.007812 -5.734375 4.34375 -5.351562 4.390625 -4.765625 C 4.414062 -4.523438 4.414062 -4.273438 4.414062 -3.996094 L 4.414062 -3.828125 L 4.007812 -3.828125 C 1.511719 -3.828125 0.433594 -3.085938 0.433594 -1.644531 C 0.433594 -0.46875 1.332031 0.167969 2.484375 0.167969 C 3.097656 0.167969 3.648438 0.0703125 4.078125 -0.226562 L 4.429688 -0.910156 Z M 2.832031 -0.625 C 2.050781 -0.625 1.558594 -0.960938 1.558594 -1.726562 C 1.558594 -2.820312 2.664062 -3.191406 4.414062 -3.058594 L 4.414062 -2.410156 C 4.414062 -1.261719 3.792969 -0.625 2.832031 -0.625 Z M 2.832031 -0.625 "/></g></g></g><g fill="#000000" fill-opacity="1"><g transform="translate(266.329877, 207.386046)"><g><path d="M 3.382812 -6.503906 C 3.085938 -6.503906 2.761719 -6.394531 2.496094 -6.214844 L 1.921875 -5.363281 L 1.921875 -6.359375 L 0.886719 -6.359375 L 0.886719 0 L 1.921875 0 L 1.921875 -3.625 C 1.921875 -5.074219 2.734375 -5.710938 3.816406 -5.640625 L 3.816406 -6.421875 C 3.695312 -6.480469 3.550781 -6.503906 3.382812 -6.503906 Z M 3.382812 -6.503906 "/></g></g></g><g fill="#000000" fill-opacity="1"><g transform="translate(270.289887, 207.386046)"><g/></g></g><g fill="#000000" fill-opacity="1"><g transform="translate(272.881893, 207.386046)"><g><path d="M 4.476562 -8.449219 C 2.125 -8.449219 0.5625 -6.625 0.5625 -4.105469 C 0.5625 -1.679688 1.90625 0.167969 4.320312 0.167969 C 6.503906 0.167969 7.621094 -1.140625 7.777344 -2.640625 L 7.789062 -2.761719 L 6.757812 -2.761719 L 6.730469 -2.640625 C 6.492188 -1.453125 5.761719 -0.648438 4.378906 -0.648438 C 2.746094 -0.648438 1.714844 -2.113281 1.714844 -4.152344 C 1.714844 -6.15625 2.761719 -7.632812 4.453125 -7.632812 C 5.832031 -7.632812 6.5625 -6.828125 6.804688 -5.640625 L 6.828125 -5.519531 L 7.859375 -5.519531 L 7.847656 -5.640625 C 7.679688 -7.261719 6.574219 -8.449219 4.476562 -8.449219 Z M 4.476562 -8.449219 "/></g></g></g><g fill="#000000" fill-opacity="1"><g transform="translate(281.269909, 207.386046)"><g><path d="M 6.109375 -3.359375 C 6.109375 -5.21875 5.136719 -6.527344 3.382812 -6.527344 C 1.644531 -6.527344 0.359375 -5.21875 0.359375 -3.15625 C 0.359375 -0.910156 1.597656 0.167969 3.253906 0.167969 C 4.558594 0.167969 5.773438 -0.515625 6.023438 -2.050781 L 4.945312 -2.050781 C 4.800781 -1.140625 4.128906 -0.625 3.300781 -0.625 C 2.363281 -0.625 1.570312 -1.1875 1.476562 -2.867188 L 6.085938 -2.867188 C 6.109375 -3.097656 6.109375 -3.265625 6.109375 -3.359375 Z M 3.359375 -5.734375 C 4.402344 -5.734375 4.96875 -4.980469 5.0625 -3.660156 L 1.488281 -3.660156 C 1.609375 -5.015625 2.351562 -5.734375 3.359375 -5.734375 Z M 3.359375 -5.734375 "/></g></g></g><g fill="#000000" fill-opacity="1"><g transform="translate(287.857917, 207.386046)"><g><path d="M 3.382812 -6.503906 C 3.085938 -6.503906 2.761719 -6.394531 2.496094 -6.214844 L 1.921875 -5.363281 L 1.921875 -6.359375 L 0.886719 -6.359375 L 0.886719 0 L 1.921875 0 L 1.921875 -3.625 C 1.921875 -5.074219 2.734375 -5.710938 3.816406 -5.640625 L 3.816406 -6.421875 C 3.695312 -6.480469 3.550781 -6.503906 3.382812 -6.503906 Z M 3.382812 -6.503906 "/></g></g></g><g fill="#000000" fill-opacity="1"><g transform="translate(291.817927, 207.386046)"><g><path d="M 3.347656 -6.527344 C 1.753906 -6.527344 0.359375 -5.316406 0.359375 -3.167969 C 0.359375 -0.839844 1.585938 0.167969 3.191406 0.167969 C 4.609375 0.167969 5.664062 -0.550781 5.976562 -2.027344 L 4.894531 -2.027344 C 4.679688 -1.105469 4.09375 -0.625 3.253906 -0.625 C 2.304688 -0.625 1.488281 -1.390625 1.488281 -3.238281 C 1.488281 -4.957031 2.328125 -5.734375 3.324219 -5.734375 C 4.175781 -5.734375 4.726562 -5.242188 4.957031 -4.222656 L 6.035156 -4.222656 C 5.84375 -5.617188 4.871094 -6.527344 3.347656 -6.527344 Z M 3.347656 -6.527344 "/></g></g></g><g fill="#000000" fill-opacity="1"><g transform="translate(298.165942, 207.386046)"><g><path d="M 4.535156 0 L 5.566406 0 C 5.472656 -0.707031 5.449219 -1.140625 5.449219 -1.621094 L 5.449219 -4.007812 C 5.449219 -4.285156 5.4375 -4.597656 5.410156 -4.847656 C 5.304688 -5.890625 4.667969 -6.527344 3.15625 -6.527344 C 1.753906 -6.527344 0.804688 -5.746094 0.707031 -4.390625 L 1.789062 -4.390625 C 1.859375 -5.269531 2.292969 -5.734375 3.15625 -5.734375 C 4.007812 -5.734375 4.34375 -5.351562 4.390625 -4.765625 C 4.414062 -4.523438 4.414062 -4.273438 4.414062 -3.996094 L 4.414062 -3.828125 L 4.007812 -3.828125 C 1.511719 -3.828125 0.433594 -3.085938 0.433594 -1.644531 C 0.433594 -0.46875 1.332031 0.167969 2.484375 0.167969 C 3.097656 0.167969 3.648438 0.0703125 4.078125 -0.226562 L 4.429688 -0.910156 Z M 2.832031 -0.625 C 2.050781 -0.625 1.558594 -0.960938 1.558594 -1.726562 C 1.558594 -2.820312 2.664062 -3.191406 4.414062 -3.058594 L 4.414062 -2.410156 C 4.414062 -1.261719 3.792969 -0.625 2.832031 -0.625 Z M 2.832031 -0.625 "/></g></g></g><g fill="#000000" fill-opacity="1"><g transform="translate(304.537954, 207.386046)"><g/></g></g><g fill="#000000" fill-opacity="1"><g transform="translate(307.129961, 207.386046)"><g><path d="M 4.777344 -8.230469 C 4.355469 -8.28125 4.164062 -8.28125 3.71875 -8.28125 L 1.199219 -8.28125 L 1.199219 0 L 3.660156 0 C 4.105469 0 4.296875 0 4.714844 -0.046875 C 6.636719 -0.289062 8.050781 -1.800781 8.050781 -4.234375 C 8.050781 -6.707031 6.695312 -7.992188 4.777344 -8.230469 Z M 4.609375 -0.898438 C 4.34375 -0.851562 4.03125 -0.839844 3.601562 -0.839844 L 2.230469 -0.839844 L 2.230469 -7.441406 L 3.660156 -7.441406 C 4.09375 -7.441406 4.402344 -7.429688 4.667969 -7.378906 C 6.070312 -7.152344 6.925781 -6.070312 6.925781 -4.234375 C 6.925781 -2.28125 6.011719 -1.128906 4.609375 -0.898438 Z M 4.609375 -0.898438 "/></g></g></g><g fill="#000000" fill-opacity="1"><g transform="translate(315.637979, 207.386046)"><g><path d="M 6.109375 -3.359375 C 6.109375 -5.21875 5.136719 -6.527344 3.382812 -6.527344 C 1.644531 -6.527344 0.359375 -5.21875 0.359375 -3.15625 C 0.359375 -0.910156 1.597656 0.167969 3.253906 0.167969 C 4.558594 0.167969 5.773438 -0.515625 6.023438 -2.050781 L 4.945312 -2.050781 C 4.800781 -1.140625 4.128906 -0.625 3.300781 -0.625 C 2.363281 -0.625 1.570312 -1.1875 1.476562 -2.867188 L 6.085938 -2.867188 C 6.109375 -3.097656 6.109375 -3.265625 6.109375 -3.359375 Z M 3.359375 -5.734375 C 4.402344 -5.734375 4.96875 -4.980469 5.0625 -3.660156 L 1.488281 -3.660156 C 1.609375 -5.015625 2.351562 -5.734375 3.359375 -5.734375 Z M 3.359375 -5.734375 "/></g></g></g><g fill="#000000" fill-opacity="1"><g transform="translate(322.225987, 207.386046)"><g/></g></g><g fill="#000000" fill-opacity="1"><g transform="translate(324.817994, 207.386046)"><g><path d="M 7.34375 -7.441406 L 7.34375 -8.28125 L 0.40625 -8.28125 L 0.40625 -7.441406 L 3.359375 -7.441406 L 3.359375 0 L 4.390625 0 L 4.390625 -7.441406 Z M 7.34375 -7.441406 "/></g></g></g><g fill="#000000" fill-opacity="1"><g transform="translate(332.16201, 207.386046)"><g><path d="M 1.667969 -6.960938 L 2.6875 -8.28125 L 1.726562 -8.28125 L 0.996094 -6.960938 Z M 1.921875 0 L 1.921875 -6.359375 L 0.886719 -6.359375 L 0.886719 0 Z M 1.921875 0 "/></g></g></g></svg>